# xmcd
#
# Track frame offsets: 
#        180
#        23339
#        45074
#        67328
#        88764
#        102165
#        118872
#        137662
#        161937
#        183658
#        201724
#        220173
#        240188
#        268597
#        290695
#
# Disc length: 4150 seconds
#
# Revision: 0
# Processed by: cddbd v1.5.2PL0 Copyright (c) Steve Scherf et al.
# Submitted via: ExactAudioCopy v1.0b1
#
DISCID=df10340f
DTITLE=Various Artist - Seleksi Emas Vol. 1
DYEAR=1997
DGENRE=Melayu
TTITLE0=Jamal Abdillah - Kekasih Awal Dan Akhir
TTITLE1=Ramli Sarip and Khatijah Ibrahim - Doa Buat Kekasih
TTITLE2=Ramli Sarip - Perjalanan Hidup
TTITLE3=SM Salim - Nanti Dulu
TTITLE4=Jay Jay - Rindu Bayangan
TTITLE5=Francissca Peter - Sekadar Di Pinggiran
TTITLE6=Man Bai - Kau Ilham Ku
TTITLE7=Ella and Deddy Dores - Mendung Tak Bererti Hujan
TTITLE8=Sweet Charity - Kamelia
TTITLE9=Azlina Aziz - Wajah Siapa Di Hati Mu
TTITLE10=Amelina - Rindu
TTITLE11=Nora - Sandiwara
TTITLE12=Zainal Abidin - Hijau
TTITLE13=Feminin - Kini
TTITLE14=Lefthanded - Kenangan Bersama Mu
EXTD=
EXTT0=
EXTT1=
EXTT2=
EXTT3=
EXTT4=
EXTT5=
EXTT6=
EXTT7=
EXTT8=
EXTT9=
EXTT10=
EXTT11=
EXTT12=
EXTT13=
EXTT14=
PLAYORDER=
